<svg width="58" height="28" viewBox="0 0 58 28" fill="none" xmlns="http://www.w3.org/2000/svg">
<path d="M41.6094 1C42.2975 1 42.8973 1.46826 43.0645 2.13574L47.2803 19H55.3594C56.3352 19 57.0511 19.9175 56.8145 20.8643L55.5645 25.8643C55.3973 26.5317 54.7975 27 54.1094 27H8.39062C7.7025 27 7.10266 26.5317 6.93555 25.8643L1.18555 2.86426C0.948867 1.91754 1.66477 1 2.64062 1H41.6094Z" fill="black" stroke="black" stroke-width="2"/>
<path d="M2.15532 2.62127C2.07642 2.30569 2.3151 2 2.64039 2H7.60961C7.83905 2 8.03904 2.15615 8.09468 2.37873L13.8447 25.3787C13.9236 25.6943 13.6849 26 13.3596 26H8.39039C8.16095 26 7.96096 25.8439 7.90532 25.6213L2.15532 2.62127Z" fill="white"/>
<path d="M28.1553 2.62127C28.0764 2.30569 28.3151 2 28.6404 2H33.6096C33.839 2 34.039 2.15615 34.0947 2.37873L39.9053 25.6213C39.961 25.8439 40.161 26 40.3904 26H41H34.3904C34.161 26 33.961 25.8439 33.9053 25.6213L28.1553 2.62127Z" fill="white"/>
<path d="M22.9053 2.37873C22.961 2.15615 23.161 2 23.3904 2H24H17.3904C17.161 2 16.961 2.15615 16.9053 2.37873L11.1553 25.3787C11.0764 25.6943 11.3151 26 11.6404 26H16.6096C16.839 26 17.039 25.8439 17.0947 25.6213L22.9053 2.37873Z" fill="white"/>
<path d="M30.8447 2.62127C30.9236 2.30569 30.6849 2 30.3596 2H25.3904C25.161 2 24.961 2.15615 24.9053 2.37873L19.0947 25.6213C19.039 25.8439 18.839 26 18.6096 26H18H24.6096C24.839 26 25.039 25.8439 25.0947 25.6213L30.8447 2.62127Z" fill="white"/>
<path d="M36.0947 2.37873C36.039 2.15615 35.839 2 35.6096 2H35H41.6096C41.839 2 42.039 2.15615 42.0947 2.37873L47.8447 25.3787C47.9236 25.6943 47.6849 26 47.3596 26H42.3904C42.161 26 41.961 25.8439 41.9053 25.6213L36.0947 2.37873Z" fill="white"/>
<path d="M55.8447 20.6213C55.9236 20.3057 55.6849 20 55.3596 20H44.5C44.2239 20 44 20.2239 44 20.5V25.5C44 25.7761 44.2239 26 44.5 26H54.1096C54.339 26 54.539 25.8439 54.5947 25.6213L55.8447 20.6213Z" fill="white"/>
<path d="M29.9876 17.1453C29.8696 16.6264 29.1304 16.6264 29.0124 17.1453L27.0885 25.6108C27.0367 25.8385 26.8343 26 26.6009 26H26H33H32.3991C32.1657 26 31.9633 25.8385 31.9115 25.6108L29.9876 17.1453Z" fill="#00FFAA"/>
<path d="M29.5 15L27 26H32L29.5 15Z" fill="#00FFAA"/>
</svg>
